<svg width="120" height="96" viewBox="0 0 120 96" fill="none" xmlns="http://www.w3.org/2000/svg">
<path d="M80.8424 27.8185C72.3258 27.8185 63.6566 27.4669 55.5471 25.1716C47.5902 22.9279 40.2844 18.575 33.7724 13.5397C29.509 10.2621 25.6323 7.64626 20.097 8.03916C14.6819 8.33692 9.50354 10.3917 5.32281 13.9016C-1.71836 20.1673 -0.660153 31.7785 2.15835 39.9053C6.39119 52.1781 19.2729 60.7288 30.2213 66.2604C42.8689 72.6812 56.7681 76.4137 70.6978 78.554C82.9079 80.4461 98.5979 81.8109 109.18 73.7151C118.897 66.2604 121.563 49.2624 119.182 37.7857C118.604 34.3952 116.828 31.336 114.186 29.1833C107.359 24.1066 97.1734 27.4979 89.5014 27.6634C86.6524 27.7254 83.7525 27.7978 80.8424 27.8185Z" fill="#64A5FF" fill-opacity="0.47"/>
<path d="M60.4108 95.04C81.0402 95.04 97.7636 94.0737 97.7636 92.8817C97.7636 91.6897 81.0402 90.7234 60.4108 90.7234C39.7814 90.7234 23.058 91.6897 23.058 92.8817C23.058 94.0737 39.7814 95.04 60.4108 95.04Z" fill="#F2F2F2"/>
<path d="M90.4375 69.7622H25.9172C25.4854 69.7619 25.0588 69.6747 24.667 69.5067C24.2751 69.3387 23.9274 69.0939 23.6477 68.7891C23.3681 68.4844 23.1632 68.127 23.0474 67.7417C22.9315 67.3564 22.9073 66.9524 22.9766 66.5577L31.2286 20.2055C31.3401 19.5604 31.6965 18.9733 32.2338 18.55C32.771 18.1267 33.4537 17.8949 34.159 17.8964H98.6793C99.1108 17.8964 99.5371 17.9835 99.9286 18.1516C100.32 18.3197 100.667 18.5647 100.946 18.8697C101.225 19.1746 101.429 19.5322 101.543 19.9175C101.658 20.3028 101.681 20.7066 101.61 21.1009L93.3984 67.453C93.2842 68.1021 92.9228 68.6919 92.3796 69.1155C91.8365 69.5391 91.1475 69.7685 90.4375 69.7622Z" fill="#64A5FF"/>
<path d="M91.2325 16.6842L52.9347 0.845354C51.8058 0.378479 50.482 0.847683 49.978 1.89335L37.84 27.0749C37.336 28.1206 37.8425 29.3468 38.9714 29.8136L77.2692 45.6525C78.3981 46.1193 79.7219 45.6501 80.2259 44.6045L92.3639 19.4229C92.8679 18.3772 92.3614 17.151 91.2325 16.6842Z" fill="white" stroke="#64A5FF" stroke-linecap="round" stroke-linejoin="round"/>
<path d="M58.5487 21.5627C59.5568 20.2525 61.0229 19.3054 62.6986 18.8819C64.3743 18.4584 66.1565 18.5846 67.7433 19.2391C69.3301 19.8936 70.6237 21.0361 71.4051 22.473C72.1865 23.9099 72.4075 25.5529 72.0307 27.1234" stroke="#64A5FF" stroke-width="0.68" stroke-linecap="round" stroke-linejoin="round"/>
<path d="M76.864 20.1395C77.4428 20.1395 77.912 19.7049 77.912 19.1688C77.912 18.6326 77.4428 18.198 76.864 18.198C76.2851 18.198 75.8159 18.6326 75.8159 19.1688C75.8159 19.7049 76.2851 20.1395 76.864 20.1395Z" fill="#64A5FF"/>
<path d="M61.6827 13.8625C62.2615 13.8625 62.7307 13.4278 62.7307 12.8917C62.7307 12.3555 62.2615 11.9209 61.6827 11.9209C61.1039 11.9209 60.6346 12.3555 60.6346 12.8917C60.6346 13.4278 61.1039 13.8625 61.6827 13.8625Z" fill="#64A5FF"/>
<path d="M90.1527 69.7433H25.317C24.528 69.7408 23.7723 69.4488 23.2154 68.9311C22.6585 68.4135 22.3458 67.7125 22.3458 66.9818V24.6352C22.3363 24.2679 22.4061 23.9024 22.5511 23.5604C22.696 23.2183 22.9132 22.9065 23.1899 22.6431C23.4666 22.3798 23.7973 22.1703 24.1625 22.0268C24.5278 21.8834 24.9202 21.8089 25.317 21.8077H48.9334C49.4814 21.8096 50.0182 21.9513 50.4849 22.2174C50.9516 22.4834 51.3301 22.8634 51.5789 23.3157L54.9468 29.4231C55.1947 29.8761 55.573 30.2567 56.0399 30.5229C56.5068 30.789 57.0441 30.9303 57.5924 30.9311H90.1527C90.9407 30.9311 91.6964 31.2211 92.2536 31.7372C92.8108 32.2533 93.1238 32.9533 93.1238 33.6832V66.9818C93.1238 67.7125 92.8111 68.4135 92.2542 68.9311C91.6973 69.4488 90.9416 69.7408 90.1527 69.7433Z" fill="white" stroke="#64A5FF" stroke-linecap="round" stroke-linejoin="round"/>
<path d="M80.1709 32.3732C76.4253 32.3713 72.7632 33.3984 69.6479 35.3246C66.5326 37.2508 64.104 39.9895 62.6692 43.1943C61.2344 46.3992 60.858 49.9262 61.5875 53.3292C62.317 56.7322 64.1196 59.8584 66.7675 62.3124C69.4153 64.7663 72.7893 66.4378 76.4628 67.1153C80.1363 67.7929 83.9441 67.4461 87.4048 66.1188C90.8655 64.7915 93.8235 62.5434 95.9046 59.6587C97.9858 56.7741 99.0966 53.3826 99.0966 49.9131C99.0966 45.2629 97.103 40.8029 93.554 37.5138C90.005 34.2247 85.1912 32.3757 80.1709 32.3732Z" fill="white" stroke="#64A5FF" stroke-linecap="round" stroke-linejoin="round"/>
<path d="M93.6426 62.6368L98.6894 67.3116" stroke="#64A5FF" stroke-linecap="round" stroke-linejoin="round"/>
<path d="M98.1191 65.0403L96.5512 66.5596C95.8483 67.2406 95.8746 68.3205 96.6098 68.9715L110.217 81.0201C110.952 81.6712 112.118 81.6469 112.821 80.9658L114.388 79.4466C115.091 78.7655 115.065 77.6857 114.33 77.0346L100.723 64.986C99.9878 64.335 98.822 64.3593 98.1191 65.0403Z" fill="#64A5FF"/>
</svg>
